<mxfile host="Electron" agent="Mozilla/5.0 (Windows NT 10.0; Win64; x64) AppleWebKit/537.36 (KHTML, like Gecko) draw.io/26.0.16 Chrome/132.0.6834.196 Electron/34.2.0 Safari/537.36" version="26.0.16">
  <diagram id="C5RBs43oDa-KdzZeNtuy" name="Page-1">
    <mxGraphModel dx="1195" dy="697" grid="1" gridSize="10" guides="1" tooltips="1" connect="1" arrows="1" fold="1" page="1" pageScale="1" pageWidth="4000" pageHeight="1169" math="0" shadow="0">
      <root>
        <mxCell id="WIyWlLk6GJQsqaUBKTNV-0" />
        <mxCell id="WIyWlLk6GJQsqaUBKTNV-1" parent="WIyWlLk6GJQsqaUBKTNV-0" />
        <mxCell id="SYfAOWWkaenQnW86JDwT-8" value="Administrateur" style="swimlane;fontStyle=1;align=center;verticalAlign=top;childLayout=stackLayout;horizontal=1;startSize=26;horizontalStack=0;resizeParent=1;resizeParentMax=0;resizeLast=0;collapsible=1;marginBottom=0;whiteSpace=wrap;html=1;" parent="WIyWlLk6GJQsqaUBKTNV-1" vertex="1">
          <mxGeometry x="1220" y="20" width="160" height="106" as="geometry" />
        </mxCell>
        <mxCell id="SYfAOWWkaenQnW86JDwT-10" value="" style="line;strokeWidth=1;fillColor=none;align=left;verticalAlign=middle;spacingTop=-1;spacingLeft=3;spacingRight=3;rotatable=0;labelPosition=right;points=[];portConstraint=eastwest;strokeColor=inherit;" parent="SYfAOWWkaenQnW86JDwT-8" vertex="1">
          <mxGeometry y="26" width="160" height="8" as="geometry" />
        </mxCell>
        <mxCell id="SYfAOWWkaenQnW86JDwT-11" value="&lt;div&gt;&amp;nbsp; +gérerUtilisateurs()&lt;/div&gt;&lt;div&gt;&amp;nbsp; +gérerClasses()&lt;/div&gt;&lt;div&gt;&amp;nbsp; +gérerAnnonces()&lt;/div&gt;&lt;div&gt;&amp;nbsp; +gérerQuestionsTest()&lt;/div&gt;" style="text;strokeColor=none;fillColor=none;align=left;verticalAlign=top;spacingLeft=4;spacingRight=4;overflow=hidden;rotatable=0;points=[[0,0.5],[1,0.5]];portConstraint=eastwest;whiteSpace=wrap;html=1;" parent="SYfAOWWkaenQnW86JDwT-8" vertex="1">
          <mxGeometry y="34" width="160" height="72" as="geometry" />
        </mxCell>
        <mxCell id="w2r914sDmP2xIaude5eH-0" value="User" style="swimlane;fontStyle=1;align=center;verticalAlign=top;childLayout=stackLayout;horizontal=1;startSize=26;horizontalStack=0;resizeParent=1;resizeParentMax=0;resizeLast=0;collapsible=1;marginBottom=0;whiteSpace=wrap;html=1;" vertex="1" parent="WIyWlLk6GJQsqaUBKTNV-1">
          <mxGeometry x="60" y="70" width="160" height="330" as="geometry" />
        </mxCell>
        <mxCell id="w2r914sDmP2xIaude5eH-1" value="&lt;div&gt;&amp;nbsp; &amp;nbsp; - id: int&lt;/div&gt;&lt;div&gt;&amp;nbsp; &amp;nbsp; - name: string&lt;/div&gt;&lt;div&gt;&amp;nbsp; &amp;nbsp; - email: string&lt;/div&gt;&lt;div&gt;&amp;nbsp; &amp;nbsp; - password: string&lt;/div&gt;&lt;div&gt;&amp;nbsp; &amp;nbsp; - role: string&lt;/div&gt;" style="text;strokeColor=none;fillColor=none;align=left;verticalAlign=top;spacingLeft=4;spacingRight=4;overflow=hidden;rotatable=0;points=[[0,0.5],[1,0.5]];portConstraint=eastwest;whiteSpace=wrap;html=1;" vertex="1" parent="w2r914sDmP2xIaude5eH-0">
          <mxGeometry y="26" width="160" height="94" as="geometry" />
        </mxCell>
        <mxCell id="w2r914sDmP2xIaude5eH-2" value="" style="line;strokeWidth=1;fillColor=none;align=left;verticalAlign=middle;spacingTop=-1;spacingLeft=3;spacingRight=3;rotatable=0;labelPosition=right;points=[];portConstraint=eastwest;strokeColor=inherit;" vertex="1" parent="w2r914sDmP2xIaude5eH-0">
          <mxGeometry y="120" width="160" height="8" as="geometry" />
        </mxCell>
        <mxCell id="w2r914sDmP2xIaude5eH-3" value="&lt;div&gt;+ getId(): int&lt;/div&gt;&lt;div&gt;&lt;span style=&quot;background-color: transparent; color: light-dark(rgb(0, 0, 0), rgb(255, 255, 255));&quot;&gt;+ setId(id: int): void&lt;/span&gt;&lt;/div&gt;&lt;div&gt;+ getName(): string&lt;/div&gt;&lt;div&gt;+ setName(name: string): void&lt;/div&gt;&lt;div&gt;+ getEmail(): string&lt;/div&gt;&lt;div&gt;&lt;span style=&quot;background-color: transparent; color: light-dark(rgb(0, 0, 0), rgb(255, 255, 255));&quot;&gt;+ setEmail(email: string): void&lt;/span&gt;&lt;/div&gt;&lt;div&gt;&lt;span style=&quot;background-color: transparent; color: light-dark(rgb(0, 0, 0), rgb(255, 255, 255));&quot;&gt;+ getPassword(): string&lt;/span&gt;&lt;/div&gt;&lt;div&gt;+ setPassword(password: string): void&lt;/div&gt;&lt;div&gt;&lt;span style=&quot;background-color: transparent; color: light-dark(rgb(0, 0, 0), rgb(255, 255, 255));&quot;&gt;+ getRole(): string&lt;/span&gt;&lt;/div&gt;&lt;div&gt;+ setRole(role: string): void&lt;/div&gt;" style="text;strokeColor=none;fillColor=none;align=left;verticalAlign=top;spacingLeft=4;spacingRight=4;overflow=hidden;rotatable=0;points=[[0,0.5],[1,0.5]];portConstraint=eastwest;whiteSpace=wrap;html=1;" vertex="1" parent="w2r914sDmP2xIaude5eH-0">
          <mxGeometry y="128" width="160" height="202" as="geometry" />
        </mxCell>
        <mxCell id="w2r914sDmP2xIaude5eH-4" value="Course" style="swimlane;fontStyle=1;align=center;verticalAlign=top;childLayout=stackLayout;horizontal=1;startSize=26;horizontalStack=0;resizeParent=1;resizeParentMax=0;resizeLast=0;collapsible=1;marginBottom=0;whiteSpace=wrap;html=1;" vertex="1" parent="WIyWlLk6GJQsqaUBKTNV-1">
          <mxGeometry x="290" y="80" width="160" height="262" as="geometry" />
        </mxCell>
        <mxCell id="w2r914sDmP2xIaude5eH-5" value="&lt;div&gt;&amp;nbsp; &amp;nbsp; - id: int&lt;/div&gt;&lt;div&gt;&amp;nbsp; &amp;nbsp; - title: string&lt;/div&gt;&lt;div&gt;&amp;nbsp; &amp;nbsp; - description: string&lt;/div&gt;&lt;div&gt;&amp;nbsp; &amp;nbsp; - teacher_id: int&lt;/div&gt;" style="text;strokeColor=none;fillColor=none;align=left;verticalAlign=top;spacingLeft=4;spacingRight=4;overflow=hidden;rotatable=0;points=[[0,0.5],[1,0.5]];portConstraint=eastwest;whiteSpace=wrap;html=1;" vertex="1" parent="w2r914sDmP2xIaude5eH-4">
          <mxGeometry y="26" width="160" height="74" as="geometry" />
        </mxCell>
        <mxCell id="w2r914sDmP2xIaude5eH-6" value="" style="line;strokeWidth=1;fillColor=none;align=left;verticalAlign=middle;spacingTop=-1;spacingLeft=3;spacingRight=3;rotatable=0;labelPosition=right;points=[];portConstraint=eastwest;strokeColor=inherit;" vertex="1" parent="w2r914sDmP2xIaude5eH-4">
          <mxGeometry y="100" width="160" height="10" as="geometry" />
        </mxCell>
        <mxCell id="w2r914sDmP2xIaude5eH-7" value="&lt;div&gt;+ getId(): int&lt;/div&gt;&lt;div&gt;+ setId(id: int): void&lt;/div&gt;&lt;div&gt;+ getTitle(): string&lt;/div&gt;&lt;div&gt;+ setTitle(title: string): void&lt;/div&gt;&lt;div&gt;+ getDescription(): string&lt;/div&gt;&lt;div&gt;&lt;span style=&quot;background-color: transparent; color: light-dark(rgb(0, 0, 0), rgb(255, 255, 255));&quot;&gt;+setDescription(description: string): void&lt;/span&gt;&lt;/div&gt;&lt;div&gt;&lt;span style=&quot;background-color: transparent; color: light-dark(rgb(0, 0, 0), rgb(255, 255, 255));&quot;&gt;+ getTeacherId(): int&lt;/span&gt;&lt;/div&gt;&lt;div&gt;&lt;span style=&quot;background-color: transparent; color: light-dark(rgb(0, 0, 0), rgb(255, 255, 255));&quot;&gt;+ setTeacherId(teacher_id: int): void&lt;/span&gt;&lt;/div&gt;" style="text;strokeColor=none;fillColor=none;align=left;verticalAlign=top;spacingLeft=4;spacingRight=4;overflow=hidden;rotatable=0;points=[[0,0.5],[1,0.5]];portConstraint=eastwest;whiteSpace=wrap;html=1;" vertex="1" parent="w2r914sDmP2xIaude5eH-4">
          <mxGeometry y="110" width="160" height="152" as="geometry" />
        </mxCell>
        <mxCell id="w2r914sDmP2xIaude5eH-8" value="Assignment" style="swimlane;fontStyle=1;align=center;verticalAlign=top;childLayout=stackLayout;horizontal=1;startSize=26;horizontalStack=0;resizeParent=1;resizeParentMax=0;resizeLast=0;collapsible=1;marginBottom=0;whiteSpace=wrap;html=1;" vertex="1" parent="WIyWlLk6GJQsqaUBKTNV-1">
          <mxGeometry x="560" y="80" width="160" height="290" as="geometry" />
        </mxCell>
        <mxCell id="w2r914sDmP2xIaude5eH-9" value="&lt;div&gt;&amp;nbsp; &amp;nbsp; - id: int&lt;/div&gt;&lt;div&gt;&amp;nbsp; &amp;nbsp; - title: string&lt;/div&gt;&lt;div&gt;&amp;nbsp; &amp;nbsp; - content: text&lt;/div&gt;&lt;div&gt;&amp;nbsp; &amp;nbsp; - user_id: int&lt;/div&gt;" style="text;strokeColor=none;fillColor=none;align=left;verticalAlign=top;spacingLeft=4;spacingRight=4;overflow=hidden;rotatable=0;points=[[0,0.5],[1,0.5]];portConstraint=eastwest;whiteSpace=wrap;html=1;" vertex="1" parent="w2r914sDmP2xIaude5eH-8">
          <mxGeometry y="26" width="160" height="94" as="geometry" />
        </mxCell>
        <mxCell id="w2r914sDmP2xIaude5eH-10" value="" style="line;strokeWidth=1;fillColor=none;align=left;verticalAlign=middle;spacingTop=-1;spacingLeft=3;spacingRight=3;rotatable=0;labelPosition=right;points=[];portConstraint=eastwest;strokeColor=inherit;" vertex="1" parent="w2r914sDmP2xIaude5eH-8">
          <mxGeometry y="120" width="160" height="8" as="geometry" />
        </mxCell>
        <mxCell id="w2r914sDmP2xIaude5eH-11" value="&lt;div&gt;+ getId(): int&lt;/div&gt;&lt;div&gt;&lt;span style=&quot;background-color: transparent; color: light-dark(rgb(0, 0, 0), rgb(255, 255, 255));&quot;&gt;+ setId(id: int): void&lt;/span&gt;&lt;/div&gt;&lt;div&gt;&lt;span style=&quot;background-color: transparent; color: light-dark(rgb(0, 0, 0), rgb(255, 255, 255));&quot;&gt;+ getTitle(): string&lt;/span&gt;&lt;/div&gt;&lt;div&gt;&lt;span style=&quot;background-color: transparent; color: light-dark(rgb(0, 0, 0), rgb(255, 255, 255));&quot;&gt;+ setTitle(title: string): void&lt;/span&gt;&lt;/div&gt;&lt;div&gt;&lt;span style=&quot;background-color: transparent; color: light-dark(rgb(0, 0, 0), rgb(255, 255, 255));&quot;&gt;+ getContent(): text&lt;/span&gt;&lt;/div&gt;&lt;div&gt;&lt;span style=&quot;background-color: transparent; color: light-dark(rgb(0, 0, 0), rgb(255, 255, 255));&quot;&gt;+ setContent(content: text): void&lt;/span&gt;&lt;/div&gt;&lt;div&gt;&lt;span style=&quot;background-color: transparent; color: light-dark(rgb(0, 0, 0), rgb(255, 255, 255));&quot;&gt;+ getUserId(): int&lt;/span&gt;&lt;/div&gt;&lt;div&gt;&lt;span style=&quot;background-color: transparent; color: light-dark(rgb(0, 0, 0), rgb(255, 255, 255));&quot;&gt;+ setUserId(user_id: int): void&lt;/span&gt;&lt;/div&gt;" style="text;strokeColor=none;fillColor=none;align=left;verticalAlign=top;spacingLeft=4;spacingRight=4;overflow=hidden;rotatable=0;points=[[0,0.5],[1,0.5]];portConstraint=eastwest;whiteSpace=wrap;html=1;" vertex="1" parent="w2r914sDmP2xIaude5eH-8">
          <mxGeometry y="128" width="160" height="162" as="geometry" />
        </mxCell>
        <mxCell id="w2r914sDmP2xIaude5eH-12" value="Question" style="swimlane;fontStyle=1;align=center;verticalAlign=top;childLayout=stackLayout;horizontal=1;startSize=26;horizontalStack=0;resizeParent=1;resizeParentMax=0;resizeLast=0;collapsible=1;marginBottom=0;whiteSpace=wrap;html=1;" vertex="1" parent="WIyWlLk6GJQsqaUBKTNV-1">
          <mxGeometry x="800" y="80" width="160" height="290" as="geometry" />
        </mxCell>
        <mxCell id="w2r914sDmP2xIaude5eH-13" value="&lt;div&gt;&amp;nbsp; &amp;nbsp; - id: int&lt;/div&gt;&lt;div&gt;&amp;nbsp; &amp;nbsp; - Question: string&lt;/div&gt;&lt;div&gt;&amp;nbsp; &amp;nbsp; - Level: enum&lt;/div&gt;&lt;div&gt;&amp;nbsp; &amp;nbsp; - language: enum&lt;/div&gt;&lt;div&gt;&amp;nbsp; &amp;nbsp; - Skill: string&lt;/div&gt;" style="text;strokeColor=none;fillColor=none;align=left;verticalAlign=top;spacingLeft=4;spacingRight=4;overflow=hidden;rotatable=0;points=[[0,0.5],[1,0.5]];portConstraint=eastwest;whiteSpace=wrap;html=1;" vertex="1" parent="w2r914sDmP2xIaude5eH-12">
          <mxGeometry y="26" width="160" height="94" as="geometry" />
        </mxCell>
        <mxCell id="w2r914sDmP2xIaude5eH-14" value="" style="line;strokeWidth=1;fillColor=none;align=left;verticalAlign=middle;spacingTop=-1;spacingLeft=3;spacingRight=3;rotatable=0;labelPosition=right;points=[];portConstraint=eastwest;strokeColor=inherit;" vertex="1" parent="w2r914sDmP2xIaude5eH-12">
          <mxGeometry y="120" width="160" height="8" as="geometry" />
        </mxCell>
        <mxCell id="w2r914sDmP2xIaude5eH-15" value="&lt;div&gt;+ getId(): int&lt;/div&gt;&lt;div&gt;&lt;span style=&quot;background-color: transparent; color: light-dark(rgb(0, 0, 0), rgb(255, 255, 255));&quot;&gt;+ setId(id: int): void&lt;/span&gt;&lt;/div&gt;&lt;div&gt;&lt;span style=&quot;background-color: transparent; color: light-dark(rgb(0, 0, 0), rgb(255, 255, 255));&quot;&gt;+ getTitle(): string&lt;/span&gt;&lt;/div&gt;&lt;div&gt;&lt;span style=&quot;background-color: transparent; color: light-dark(rgb(0, 0, 0), rgb(255, 255, 255));&quot;&gt;+ setTitle(title: string): void&lt;/span&gt;&lt;/div&gt;&lt;div&gt;&lt;span style=&quot;background-color: transparent; color: light-dark(rgb(0, 0, 0), rgb(255, 255, 255));&quot;&gt;+ getContent(): text&lt;/span&gt;&lt;/div&gt;&lt;div&gt;&lt;span style=&quot;background-color: transparent; color: light-dark(rgb(0, 0, 0), rgb(255, 255, 255));&quot;&gt;+ setContent(content: text): void&lt;/span&gt;&lt;/div&gt;&lt;div&gt;&lt;span style=&quot;background-color: transparent; color: light-dark(rgb(0, 0, 0), rgb(255, 255, 255));&quot;&gt;+ getUserId(): int&lt;/span&gt;&lt;/div&gt;&lt;div&gt;&lt;span style=&quot;background-color: transparent; color: light-dark(rgb(0, 0, 0), rgb(255, 255, 255));&quot;&gt;+ setUserId(user_id: int): void&lt;/span&gt;&lt;/div&gt;" style="text;strokeColor=none;fillColor=none;align=left;verticalAlign=top;spacingLeft=4;spacingRight=4;overflow=hidden;rotatable=0;points=[[0,0.5],[1,0.5]];portConstraint=eastwest;whiteSpace=wrap;html=1;" vertex="1" parent="w2r914sDmP2xIaude5eH-12">
          <mxGeometry y="128" width="160" height="162" as="geometry" />
        </mxCell>
        <mxCell id="w2r914sDmP2xIaude5eH-16" value="Answer" style="swimlane;fontStyle=1;align=center;verticalAlign=top;childLayout=stackLayout;horizontal=1;startSize=26;horizontalStack=0;resizeParent=1;resizeParentMax=0;resizeLast=0;collapsible=1;marginBottom=0;whiteSpace=wrap;html=1;" vertex="1" parent="WIyWlLk6GJQsqaUBKTNV-1">
          <mxGeometry x="170" y="480" width="160" height="290" as="geometry" />
        </mxCell>
        <mxCell id="w2r914sDmP2xIaude5eH-17" value="&lt;div&gt;&amp;nbsp; &amp;nbsp; - id: int&lt;/div&gt;&lt;div&gt;&amp;nbsp; &amp;nbsp; - question_id: int&lt;/div&gt;&lt;div&gt;&amp;nbsp; &amp;nbsp; - answer: string&lt;/div&gt;&lt;div&gt;&amp;nbsp; &amp;nbsp; - correct: boolean&lt;/div&gt;" style="text;strokeColor=none;fillColor=none;align=left;verticalAlign=top;spacingLeft=4;spacingRight=4;overflow=hidden;rotatable=0;points=[[0,0.5],[1,0.5]];portConstraint=eastwest;whiteSpace=wrap;html=1;" vertex="1" parent="w2r914sDmP2xIaude5eH-16">
          <mxGeometry y="26" width="160" height="74" as="geometry" />
        </mxCell>
        <mxCell id="w2r914sDmP2xIaude5eH-18" value="" style="line;strokeWidth=1;fillColor=none;align=left;verticalAlign=middle;spacingTop=-1;spacingLeft=3;spacingRight=3;rotatable=0;labelPosition=right;points=[];portConstraint=eastwest;strokeColor=inherit;" vertex="1" parent="w2r914sDmP2xIaude5eH-16">
          <mxGeometry y="100" width="160" height="8" as="geometry" />
        </mxCell>
        <mxCell id="w2r914sDmP2xIaude5eH-19" value="&lt;div&gt;&amp;nbsp; &amp;nbsp; + getId(): int&lt;/div&gt;&lt;div&gt;&amp;nbsp; &amp;nbsp; + setId(id: int): void&lt;/div&gt;&lt;div&gt;&amp;nbsp; &amp;nbsp; + getQuestionId(): int&lt;/div&gt;&lt;div&gt;&amp;nbsp; &amp;nbsp; + setQuestionId(question_id: int): void&lt;/div&gt;&lt;div&gt;&amp;nbsp; &amp;nbsp; + getAnswer(): string&lt;/div&gt;&lt;div&gt;&amp;nbsp; &amp;nbsp; + setAnswer(answer: string): void&lt;/div&gt;&lt;div&gt;&amp;nbsp; &amp;nbsp; + isCorrect(): boolean&lt;/div&gt;&lt;div&gt;&amp;nbsp; &amp;nbsp; + setCorrect(correct: boolean): void&lt;/div&gt;" style="text;strokeColor=none;fillColor=none;align=left;verticalAlign=top;spacingLeft=4;spacingRight=4;overflow=hidden;rotatable=0;points=[[0,0.5],[1,0.5]];portConstraint=eastwest;whiteSpace=wrap;html=1;" vertex="1" parent="w2r914sDmP2xIaude5eH-16">
          <mxGeometry y="108" width="160" height="182" as="geometry" />
        </mxCell>
        <mxCell id="w2r914sDmP2xIaude5eH-20" value="&amp;nbsp;Assignedstudent" style="swimlane;fontStyle=1;align=center;verticalAlign=top;childLayout=stackLayout;horizontal=1;startSize=26;horizontalStack=0;resizeParent=1;resizeParentMax=0;resizeLast=0;collapsible=1;marginBottom=0;whiteSpace=wrap;html=1;" vertex="1" parent="WIyWlLk6GJQsqaUBKTNV-1">
          <mxGeometry x="400" y="500" width="160" height="210" as="geometry" />
        </mxCell>
        <mxCell id="w2r914sDmP2xIaude5eH-21" value="&lt;div&gt;&amp;nbsp; &amp;nbsp; - id: int&lt;/div&gt;&lt;div&gt;&amp;nbsp; &amp;nbsp; - student_id: int&lt;/div&gt;&lt;div&gt;&amp;nbsp; &amp;nbsp; - assignment_id: int&lt;/div&gt;" style="text;strokeColor=none;fillColor=none;align=left;verticalAlign=top;spacingLeft=4;spacingRight=4;overflow=hidden;rotatable=0;points=[[0,0.5],[1,0.5]];portConstraint=eastwest;whiteSpace=wrap;html=1;" vertex="1" parent="w2r914sDmP2xIaude5eH-20">
          <mxGeometry y="26" width="160" height="54" as="geometry" />
        </mxCell>
        <mxCell id="w2r914sDmP2xIaude5eH-22" value="" style="line;strokeWidth=1;fillColor=none;align=left;verticalAlign=middle;spacingTop=-1;spacingLeft=3;spacingRight=3;rotatable=0;labelPosition=right;points=[];portConstraint=eastwest;strokeColor=inherit;" vertex="1" parent="w2r914sDmP2xIaude5eH-20">
          <mxGeometry y="80" width="160" height="8" as="geometry" />
        </mxCell>
        <mxCell id="w2r914sDmP2xIaude5eH-23" value="&lt;div&gt;+ getId(): int&lt;/div&gt;&lt;div&gt;+ setId(id: int): void&lt;/div&gt;&lt;div&gt;+ getStudentId(): int&lt;/div&gt;&lt;div&gt;&lt;span style=&quot;background-color: transparent; color: light-dark(rgb(0, 0, 0), rgb(255, 255, 255));&quot;&gt;+setStudentId(student_id: int): void&lt;/span&gt;&lt;/div&gt;&lt;div&gt;&lt;span style=&quot;background-color: transparent; color: light-dark(rgb(0, 0, 0), rgb(255, 255, 255));&quot;&gt;+ getAssignmentId(): int&lt;/span&gt;&lt;/div&gt;&lt;div&gt;&lt;span style=&quot;background-color: transparent; color: light-dark(rgb(0, 0, 0), rgb(255, 255, 255));&quot;&gt;+setAssignmentId(assignment_id: int): void&lt;/span&gt;&lt;/div&gt;" style="text;strokeColor=none;fillColor=none;align=left;verticalAlign=top;spacingLeft=4;spacingRight=4;overflow=hidden;rotatable=0;points=[[0,0.5],[1,0.5]];portConstraint=eastwest;whiteSpace=wrap;html=1;" vertex="1" parent="w2r914sDmP2xIaude5eH-20">
          <mxGeometry y="88" width="160" height="122" as="geometry" />
        </mxCell>
        <mxCell id="w2r914sDmP2xIaude5eH-24" value="CourseStudents" style="swimlane;fontStyle=1;align=center;verticalAlign=top;childLayout=stackLayout;horizontal=1;startSize=26;horizontalStack=0;resizeParent=1;resizeParentMax=0;resizeLast=0;collapsible=1;marginBottom=0;whiteSpace=wrap;html=1;" vertex="1" parent="WIyWlLk6GJQsqaUBKTNV-1">
          <mxGeometry x="610" y="480" width="160" height="220" as="geometry" />
        </mxCell>
        <mxCell id="w2r914sDmP2xIaude5eH-25" value="&lt;div&gt;&amp;nbsp; &amp;nbsp; - id: int&lt;/div&gt;&lt;div&gt;&amp;nbsp; &amp;nbsp; - student_id: int&lt;/div&gt;&lt;div&gt;&amp;nbsp; &amp;nbsp; - course_id: int&lt;/div&gt;" style="text;strokeColor=none;fillColor=none;align=left;verticalAlign=top;spacingLeft=4;spacingRight=4;overflow=hidden;rotatable=0;points=[[0,0.5],[1,0.5]];portConstraint=eastwest;whiteSpace=wrap;html=1;" vertex="1" parent="w2r914sDmP2xIaude5eH-24">
          <mxGeometry y="26" width="160" height="54" as="geometry" />
        </mxCell>
        <mxCell id="w2r914sDmP2xIaude5eH-26" value="" style="line;strokeWidth=1;fillColor=none;align=left;verticalAlign=middle;spacingTop=-1;spacingLeft=3;spacingRight=3;rotatable=0;labelPosition=right;points=[];portConstraint=eastwest;strokeColor=inherit;" vertex="1" parent="w2r914sDmP2xIaude5eH-24">
          <mxGeometry y="80" width="160" height="8" as="geometry" />
        </mxCell>
        <mxCell id="w2r914sDmP2xIaude5eH-27" value="&lt;div&gt;+ getId(): int&lt;/div&gt;&lt;div&gt;&lt;span style=&quot;background-color: transparent; color: light-dark(rgb(0, 0, 0), rgb(255, 255, 255));&quot;&gt;+ setId(id: int): void&lt;/span&gt;&lt;/div&gt;&lt;div&gt;&lt;span style=&quot;background-color: transparent; color: light-dark(rgb(0, 0, 0), rgb(255, 255, 255));&quot;&gt;+ getStudentId(): int&lt;/span&gt;&lt;/div&gt;&lt;div&gt;&lt;span style=&quot;background-color: transparent; color: light-dark(rgb(0, 0, 0), rgb(255, 255, 255));&quot;&gt;+ setStudentId(student_id: int): void&lt;/span&gt;&lt;/div&gt;&lt;div&gt;&lt;span style=&quot;background-color: transparent; color: light-dark(rgb(0, 0, 0), rgb(255, 255, 255));&quot;&gt;+ getCourseId(): int&lt;/span&gt;&lt;/div&gt;&lt;div&gt;&lt;span style=&quot;background-color: transparent; color: light-dark(rgb(0, 0, 0), rgb(255, 255, 255));&quot;&gt;+ setCourseId(course_id: int): void&lt;/span&gt;&lt;/div&gt;" style="text;strokeColor=none;fillColor=none;align=left;verticalAlign=top;spacingLeft=4;spacingRight=4;overflow=hidden;rotatable=0;points=[[0,0.5],[1,0.5]];portConstraint=eastwest;whiteSpace=wrap;html=1;" vertex="1" parent="w2r914sDmP2xIaude5eH-24">
          <mxGeometry y="88" width="160" height="132" as="geometry" />
        </mxCell>
      </root>
    </mxGraphModel>
  </diagram>
</mxfile>
